<?xml version="1.0" encoding="utf-8"?>
<!-- Generator: Adobe Illustrator 25.4.8, SVG Export Plug-In . SVG Version: 6.00 Build 0)  -->
<svg version="1.1" id="Layer_1" xmlns="http://www.w3.org/2000/svg" xmlns:xlink="http://www.w3.org/1999/xlink" x="0px" y="0px"
	 viewBox="0 0 3000 3000" style="enable-background:new 0 0 3000 3000;" xml:space="preserve">
<style type="text/css">
	.st0{fill:#E1EFAD;}
</style>
<path class="st0" d="M2405.4,1829.1c0-92.5-54.6-178.5-148.1-250.1c27.6,7.2,70,12.2,102.3-11.2c60-43.4,52.1-160.8-10.4-217
	c-37.6-33.8-85.9-37.1-115.5-35.1c-58.5-232.9-214.9-423.5-419.7-519.5l15-55c23.7-87-47.1-170.8-115.7-136.9l0,0
	c-31.7,15.7-68.4,6.2-93.4-24.2l-33.4-40.7c-33.8-41.2-87.2-42.3-120.4-2.6l-45.7,54.6c-20.1,24.1-48.7,34-76.6,26.7l-49.7-13.1
	c-68.2-18-122.8,65.7-95,145.6l15.2,43.6c-206.8,95.3-364.9,286.9-423.9,521.3c-29.8-1.4-75.7,2.8-111.9,35.3
	c-62.5,56.1-70.3,173.5-10.4,217c31.2,22.6,71.7,18.7,99.3,12c0.2,3.6,0.6,7.1,0.9,10.6c-84.7,69.3-133.7,151.1-133.7,238.7
	c0,2.7,0.1,5.5,0.2,8.2c-0.1,2.7-0.2,5.5-0.2,8.2c0,216.5,298.7,397.4,697.3,441.4c62.5,6.9,125.2,10.3,188.1,10.2
	c55.3,0,109.4-2.6,161.9-7.6c411.7-38.8,723.5-222.9,723.5-444.1c0-2.8-0.1-5.5-0.2-8.2C2405.4,1834.5,2405.4,1831.8,2405.4,1829.1z
	 M1915.7,1618.1c0,1.3,0,2.5-0.1,3.8c-1.8,46.2-44.8,69.6-73.1,40.7c-13.2-13.4-29.8-21.5-48-21.5s-34.8,8-48,21.5
	c-28.3,28.9-71.3,5.5-73.1-40.7c0-1.2-0.1-2.5-0.1-3.8c0-58.8,54.2-106.4,121.2-106.4S1915.8,1559.4,1915.7,1618.1L1915.7,1618.1z
	 M1368.3,1618.1c0,1.3,0,2.5-0.1,3.8c-1.9,46.2-46.1,69.6-75.1,40.7c-13.5-13.4-30.6-21.4-49.3-21.4s-35.8,8-49.3,21.5
	c-29.1,28.9-73.2,5.5-75.1-40.7c-0.1-1.2-0.1-2.5-0.1-3.8c0-58.8,55.8-106.4,124.5-106.4S1368.3,1559.4,1368.3,1618.1L1368.3,1618.1
	z M1024.8,1380.8c0-150.7,96.1-272.8,214.7-272.8h520.7c118.6,0,214.7,122.2,214.7,272.8v60.7c-132.9-40.7-288.5-64.1-454.8-64.1
	c-183.5,0-353.9,28.5-495.3,77.2L1024.8,1380.8z M2157.9,1927.2L2157.9,1927.2c-3.8,3-9.3,2.5-12.4-1.2l-12.4-15.1
	c-3-3.6-8.4-4.2-12.1-1.4c-141.3,108.2-290.5,175.8-443.4,200.8c-45.3,7.4-91.1,11.1-137,11.1c-80.6,0-161.8-11.4-242.6-34.2
	c-188.4-53.1-316.3-150.6-349.5-177.8c-3.6-2.9-8.8-2.6-12,0.8l-16.7,18.1c-3.3,3.6-8.8,3.8-12.4,0.5l0,0c-3.6-3.3-3.8-8.8-0.5-12.4
	l68.3-74.1c3.2-3.6,8.8-3.9,12.4-0.7s3.9,8.8,0.7,12.4c-0.1,0.1-0.1,0.1-0.2,0.2l-21.7,23.6c-3.3,3.5-3.1,9.1,0.5,12.4
	c0.2,0.1,0.3,0.3,0.5,0.4c34.8,27.9,160.5,121.4,338.9,171.5c191.3,53.7,484.2,66.8,797.7-172.7c3.9-3,4.6-8.5,1.6-12.3
	c-0.1-0.1-0.1-0.1-0.2-0.2l-15.7-19.1c-3.1-3.7-2.5-9.3,1.2-12.3c0,0,0,0,0,0l0,0c3.7-3.1,9.3-2.5,12.4,1.2c0,0,0,0,0,0l56,68
	l0.1,0.1C2162.3,1918.5,2161.7,1924.1,2157.9,1927.2C2158,1927.2,2158,1927.2,2157.9,1927.2z"/>
<ellipse class="st0" cx="1260.6" cy="1270.7" rx="68.7" ry="87.4"/>
<ellipse stroke="currentColor" class="st0" cx="1739.4" cy="1270.7" rx="68.7" ry="87.4"/>
</svg>
